ply                 
format ascii 1.0    
element vertex 8
property float x    
property float y    
property float z    
element edge 6
property int vertex1
property int vertex2
property uchar red  
property uchar green
property uchar blue 
end_header          
-0.0118414 -0.014793 0.12359
0.188158 -0.0145593 0.124188
-0.0120704 0.185201 0.122021
-0.0124412 -0.0132247 0.323583
-0.160597 1.06132 0.207378
0.0392346 1.05383 0.20401
-0.152717 1.25932 0.234446
-0.158276 1.03414 0.40551
0 1 255 0 0
0 2 0 255 0
0 3 0 0 255
4 5 255 0 0
4 6 0 255 0
4 7 0 0 255
