ply                 
format ascii 1.0    
element vertex 28
property float x    
property float y    
property float z    
element edge 21
property int vertex1
property int vertex2
property uchar red  
property uchar green
property uchar blue 
end_header          
0 0 0
0 0 0
0 0 0
0 0 0
0.103866 -0.0309938 -0.196528
0.303866 -0.0310401 -0.196795
0.103913 0.169006 -0.196098
0.104134 -0.0314231 0.00347179
0 0 0
0 0 0
0 0 0
0 0 0
0 0 0
0 0 0
0 0 0
0 0 0
0 0 0
0 0 0
0 0 0
0 0 0
0 0 0
0 0 0
0 0 0
0 0 0
-0.994422 0.157327 -0.233917
-0.795686 0.173725 -0.249247
-1.01037 0.356589 -0.22757
-0.978628 0.152244 -0.034606
0 1 255 0 0
0 2 0 255 0
0 3 0 0 255
4 5 255 0 0
4 6 0 255 0
4 7 0 0 255
8 9 255 0 0
8 10 0 255 0
8 11 0 0 255
12 13 255 0 0
12 14 0 255 0
12 15 0 0 255
16 17 255 0 0
16 18 0 255 0
16 19 0 0 255
20 21 255 0 0
20 22 0 255 0
20 23 0 0 255
24 25 255 0 0
24 26 0 255 0
24 27 0 0 255
