ply                 
format ascii 1.0    
element vertex 24
property float x    
property float y    
property float z    
element edge 18
property int vertex1
property int vertex2
property uchar red  
property uchar green
property uchar blue 
end_header          
0 0 0
0 0 0
0 0 0
0 0 0
0 0 0
0 0 0
0 0 0
0 0 0
-0.0371301 0.0734877 0.2741
0.16287 0.0735107 0.273791
-0.0371516 0.273485 0.275059
-0.0368205 0.0725293 0.474098
0 0 0
0 0 0
0 0 0
0 0 0
0 0 0
0 0 0
0 0 0
0 0 0
-0.334133 0.928456 0.355673
-0.134415 0.922632 0.34679
-0.327182 1.12659 0.38205
-0.326101 0.901808 0.553727
0 1 255 0 0
0 2 0 255 0
0 3 0 0 255
4 5 255 0 0
4 6 0 255 0
4 7 0 0 255
8 9 255 0 0
8 10 0 255 0
8 11 0 0 255
12 13 255 0 0
12 14 0 255 0
12 15 0 0 255
16 17 255 0 0
16 18 0 255 0
16 19 0 0 255
20 21 255 0 0
20 22 0 255 0
20 23 0 0 255
